<svg xmlns="http://www.w3.org/2000/svg" width="520" height="478" viewBox="0 0 520 478" role="img" aria-label="Ravi Chaudhary: fullstack software engineer. Backend Go, Python, Node.js; AI with OpenAI API and Claude Code; most recently at TestMu AI (formerly LambdaTest).">
<style>
  text { font-family: ui-monospace, SFMono-Regular, Menlo, Consolas, 'Liberation Mono', monospace; font-size: 14px; }
  /* No entrance animation: a frozen or background renderer must never show a
     blank card. Only the cursor blinks. */
  .cursor { animation: blink 1s steps(1) infinite; }
  @keyframes blink { 50% { opacity: 0; } }
  @media (prefers-reduced-motion: reduce) { .cursor { animation: none; } }
</style>
<rect x="0.5" y="0.5" width="519" height="477" rx="14" fill="#09090b" stroke="#27272a" />
<path d="M0.5 14.5a14 14 0 0 1 14-14h491a14 14 0 0 1 14 14v37h-519z" fill="#151518" />
<circle cx="28" cy="26" r="5.5" fill="#ff7a45" /><circle cx="46" cy="26" r="5.5" fill="#f0508c" /><circle cx="64" cy="26" r="5.5" fill="#8b5cf6" />
<text x="260.0" y="31" text-anchor="middle" fill="#8d8a84" font-size="12">ravi@ravichaudhary.dev: ~</text>
<g class="l" style="animation-delay:0.12s"><text x="28" y="78" fill="#ff7a45">$ <tspan fill="#f4f3f0">neofetch</tspan></text></g><g class="l" style="animation-delay:0.24s"><text x="28" y="107" fill="#f4f3f0" font-weight="700">Ravi Chaudhary</text></g><g class="l" style="animation-delay:0.36s"><text x="28" y="132" fill="#b6b3ad">Fullstack Software Engineer · Noida, India</text></g><line class="l" style="animation-delay:0.48s" x1="28" x2="492" y1="148" y2="148" stroke="#27272a" /><g class="l" style="animation-delay:0.60s"><text x="28" y="169"><tspan fill="#ff7a45">backend</tspan><tspan x="140" fill="#f4f3f0">Go · Python (FastAPI) · Node.js</tspan></text></g><g class="l" style="animation-delay:0.72s"><text x="28" y="194"><tspan fill="#ff7a45">ai</tspan><tspan x="140" fill="#f4f3f0">OpenAI API · Claude Code · MCP</tspan></text></g><g class="l" style="animation-delay:0.84s"><text x="28" y="219"><tspan fill="#ff7a45">infra</tspan><tspan x="140" fill="#f4f3f0">AWS · Docker · Kubernetes · Redis</tspan></text></g><g class="l" style="animation-delay:0.96s"><text x="28" y="244"><tspan fill="#ff7a45">data</tspan><tspan x="140" fill="#f4f3f0">PostgreSQL · MySQL · OpenSearch</tspan></text></g><g class="l" style="animation-delay:1.08s"><text x="28" y="269"><tspan fill="#ff7a45">frontend</tspan><tspan x="140" fill="#f4f3f0">React · Redux · TypeScript</tspan></text></g><g class="l" style="animation-delay:1.20s"><text x="28" y="294"><tspan fill="#ff7a45">recently</tspan><tspan x="140" fill="#f4f3f0">TestMu AI (formerly LambdaTest)</tspan></text></g><g class="l" style="animation-delay:1.32s"><text x="28" y="319"><tspan fill="#ff7a45">before</tspan><tspan x="140" fill="#f4f3f0">LCX, crypto exchange</tspan></text></g><g class="l" style="animation-delay:1.44s"><text x="28" y="344"><tspan fill="#ff7a45">shipped</tspan><tspan x="140" fill="#f4f3f0">AI accessibility engine · trading UI</tspan></text></g><g class="l" style="animation-delay:1.56s"><text x="28" y="369"><tspan fill="#ff7a45">off-clock</tspan><tspan x="140" fill="#f4f3f0">mountains · Asphalt 9 · pop music</tspan></text></g><g class="l" style="animation-delay:1.68s"><rect x="28" y="408" width="22" height="12" rx="3" fill="#ff7a45" /><rect x="58" y="408" width="22" height="12" rx="3" fill="#f0508c" /><rect x="88" y="408" width="22" height="12" rx="3" fill="#8b5cf6" /><rect x="118" y="408" width="22" height="12" rx="3" fill="#b6b3ad" /><rect x="148" y="408" width="22" height="12" rx="3" fill="#8d8a84" /><rect x="178" y="408" width="22" height="12" rx="3" fill="#27272a" /></g><g class="l" style="animation-delay:1.80s"><text x="28" y="452" fill="#ff7a45">$ <tspan fill="#b6b3ad">open ravichaudhary.dev</tspan><tspan class="cursor" fill="#ff7a45"> ▋</tspan></text></g>
</svg>
